<mxfile host="Electron" agent="Mozilla/5.0 (Windows NT 10.0; Win64; x64) AppleWebKit/537.36 (KHTML, like Gecko) draw.io/24.7.17 Chrome/128.0.6613.36 Electron/32.0.1 Safari/537.36" version="24.7.17">
  <diagram name="Page-1" id="7W4TqcG-aDrPbuqk0ZpF">
    <mxGraphModel dx="1050" dy="621" grid="1" gridSize="10" guides="1" tooltips="1" connect="1" arrows="1" fold="1" page="1" pageScale="1" pageWidth="850" pageHeight="1100" math="0" shadow="0">
      <root>
        <mxCell id="0" />
        <mxCell id="1" parent="0" />
        <mxCell id="_W-dGcLapHHQyQb8B_PB-9" style="edgeStyle=orthogonalEdgeStyle;rounded=0;orthogonalLoop=1;jettySize=auto;html=1;exitX=0.5;exitY=1;exitDx=0;exitDy=0;entryX=0.5;entryY=0;entryDx=0;entryDy=0;" edge="1" parent="1" source="_W-dGcLapHHQyQb8B_PB-1" target="_W-dGcLapHHQyQb8B_PB-2">
          <mxGeometry relative="1" as="geometry" />
        </mxCell>
        <mxCell id="_W-dGcLapHHQyQb8B_PB-1" value="Start" style="ellipse;whiteSpace=wrap;html=1;" vertex="1" parent="1">
          <mxGeometry x="340" width="120" height="80" as="geometry" />
        </mxCell>
        <mxCell id="_W-dGcLapHHQyQb8B_PB-10" style="edgeStyle=orthogonalEdgeStyle;rounded=0;orthogonalLoop=1;jettySize=auto;html=1;exitX=0.5;exitY=1;exitDx=0;exitDy=0;entryX=0.5;entryY=0;entryDx=0;entryDy=0;" edge="1" parent="1" source="_W-dGcLapHHQyQb8B_PB-2" target="_W-dGcLapHHQyQb8B_PB-3">
          <mxGeometry relative="1" as="geometry" />
        </mxCell>
        <mxCell id="_W-dGcLapHHQyQb8B_PB-2" value="Nhap a va b" style="shape=parallelogram;perimeter=parallelogramPerimeter;whiteSpace=wrap;html=1;fixedSize=1;" vertex="1" parent="1">
          <mxGeometry x="340" y="140" width="120" height="60" as="geometry" />
        </mxCell>
        <mxCell id="_W-dGcLapHHQyQb8B_PB-11" style="edgeStyle=orthogonalEdgeStyle;rounded=0;orthogonalLoop=1;jettySize=auto;html=1;exitX=0.5;exitY=1;exitDx=0;exitDy=0;entryX=0.5;entryY=0;entryDx=0;entryDy=0;" edge="1" parent="1" source="_W-dGcLapHHQyQb8B_PB-3" target="_W-dGcLapHHQyQb8B_PB-4">
          <mxGeometry relative="1" as="geometry" />
        </mxCell>
        <mxCell id="_W-dGcLapHHQyQb8B_PB-12" style="edgeStyle=orthogonalEdgeStyle;rounded=0;orthogonalLoop=1;jettySize=auto;html=1;exitX=1;exitY=0.5;exitDx=0;exitDy=0;entryX=0;entryY=0.5;entryDx=0;entryDy=0;" edge="1" parent="1" source="_W-dGcLapHHQyQb8B_PB-3" target="_W-dGcLapHHQyQb8B_PB-6">
          <mxGeometry relative="1" as="geometry" />
        </mxCell>
        <mxCell id="_W-dGcLapHHQyQb8B_PB-3" value="a khác b" style="rhombus;whiteSpace=wrap;html=1;" vertex="1" parent="1">
          <mxGeometry x="360" y="270" width="80" height="80" as="geometry" />
        </mxCell>
        <mxCell id="_W-dGcLapHHQyQb8B_PB-13" style="edgeStyle=orthogonalEdgeStyle;rounded=0;orthogonalLoop=1;jettySize=auto;html=1;exitX=0;exitY=0.5;exitDx=0;exitDy=0;entryX=1;entryY=0.5;entryDx=0;entryDy=0;" edge="1" parent="1" source="_W-dGcLapHHQyQb8B_PB-4" target="_W-dGcLapHHQyQb8B_PB-7">
          <mxGeometry relative="1" as="geometry" />
        </mxCell>
        <mxCell id="_W-dGcLapHHQyQb8B_PB-14" style="edgeStyle=orthogonalEdgeStyle;rounded=0;orthogonalLoop=1;jettySize=auto;html=1;exitX=0.5;exitY=1;exitDx=0;exitDy=0;entryX=0.5;entryY=0;entryDx=0;entryDy=0;" edge="1" parent="1" source="_W-dGcLapHHQyQb8B_PB-4" target="_W-dGcLapHHQyQb8B_PB-8">
          <mxGeometry relative="1" as="geometry" />
        </mxCell>
        <mxCell id="_W-dGcLapHHQyQb8B_PB-4" value="b khác 0" style="shape=parallelogram;perimeter=parallelogramPerimeter;whiteSpace=wrap;html=1;fixedSize=1;" vertex="1" parent="1">
          <mxGeometry x="340" y="440" width="120" height="60" as="geometry" />
        </mxCell>
        <mxCell id="_W-dGcLapHHQyQb8B_PB-5" value="End" style="ellipse;whiteSpace=wrap;html=1;" vertex="1" parent="1">
          <mxGeometry x="340" y="700" width="120" height="80" as="geometry" />
        </mxCell>
        <mxCell id="_W-dGcLapHHQyQb8B_PB-18" style="edgeStyle=orthogonalEdgeStyle;rounded=0;orthogonalLoop=1;jettySize=auto;html=1;exitX=0.5;exitY=1;exitDx=0;exitDy=0;entryX=1;entryY=0.5;entryDx=0;entryDy=0;" edge="1" parent="1" source="_W-dGcLapHHQyQb8B_PB-6" target="_W-dGcLapHHQyQb8B_PB-5">
          <mxGeometry relative="1" as="geometry" />
        </mxCell>
        <mxCell id="_W-dGcLapHHQyQb8B_PB-6" value="Có nghiệm duy nhất là -b/a" style="shape=parallelogram;perimeter=parallelogramPerimeter;whiteSpace=wrap;html=1;fixedSize=1;" vertex="1" parent="1">
          <mxGeometry x="530" y="280" width="200" height="60" as="geometry" />
        </mxCell>
        <mxCell id="_W-dGcLapHHQyQb8B_PB-7" value="vô nghiệm" style="shape=parallelogram;perimeter=parallelogramPerimeter;whiteSpace=wrap;html=1;fixedSize=1;" vertex="1" parent="1">
          <mxGeometry x="140" y="440" width="120" height="60" as="geometry" />
        </mxCell>
        <mxCell id="_W-dGcLapHHQyQb8B_PB-15" style="edgeStyle=orthogonalEdgeStyle;rounded=0;orthogonalLoop=1;jettySize=auto;html=1;exitX=0.5;exitY=1;exitDx=0;exitDy=0;" edge="1" parent="1" source="_W-dGcLapHHQyQb8B_PB-8">
          <mxGeometry relative="1" as="geometry">
            <mxPoint x="400" y="700" as="targetPoint" />
          </mxGeometry>
        </mxCell>
        <mxCell id="_W-dGcLapHHQyQb8B_PB-8" value="vô nghiệm với mọi x" style="shape=parallelogram;perimeter=parallelogramPerimeter;whiteSpace=wrap;html=1;fixedSize=1;" vertex="1" parent="1">
          <mxGeometry x="320" y="570" width="160" height="60" as="geometry" />
        </mxCell>
        <mxCell id="_W-dGcLapHHQyQb8B_PB-16" value="Đúng" style="text;html=1;align=center;verticalAlign=middle;resizable=0;points=[];autosize=1;strokeColor=none;fillColor=none;" vertex="1" parent="1">
          <mxGeometry x="465" y="278" width="50" height="30" as="geometry" />
        </mxCell>
        <mxCell id="_W-dGcLapHHQyQb8B_PB-17" value="Sai" style="text;html=1;align=center;verticalAlign=middle;resizable=0;points=[];autosize=1;strokeColor=none;fillColor=none;" vertex="1" parent="1">
          <mxGeometry x="400" y="368" width="40" height="30" as="geometry" />
        </mxCell>
        <mxCell id="_W-dGcLapHHQyQb8B_PB-19" value="Đúng" style="text;html=1;align=center;verticalAlign=middle;resizable=0;points=[];autosize=1;strokeColor=none;fillColor=none;" vertex="1" parent="1">
          <mxGeometry x="280" y="440" width="50" height="30" as="geometry" />
        </mxCell>
        <mxCell id="_W-dGcLapHHQyQb8B_PB-20" value="Sai" style="text;html=1;align=center;verticalAlign=middle;resizable=0;points=[];autosize=1;strokeColor=none;fillColor=none;" vertex="1" parent="1">
          <mxGeometry x="400" y="518" width="40" height="30" as="geometry" />
        </mxCell>
      </root>
    </mxGraphModel>
  </diagram>
</mxfile>
